# xmcd CD database file
#
# Track frame offsets:
#	150
#	13913
#	27115
#	40678
#	54377
#	68750
#	82117
#	96498
#	110204
#	123803
#	137206
#	150161
#	161948
#	174066
#	187606
#	201616
#	212876
#	225724
#	240060
#	262218
#
# Disc length: 3717 seconds
#
# Revision: 2
# Processed by: cddbd v1.5.2PL0 Copyright (c) Steve Scherf et al.
# Submitted via: CDex 1.51
#
DISCID=0f0e8314
DTITLE=don byas - Laura
DYEAR=1900
DGENRE=Jazz
TTITLE0=These Foolish Things
TTITLE1=Body and Soul
TTITLE2=Cherokee
TTITLE3=Old Folks
TTITLE4=Out of Nowhere
TTITLE5=September in the rain
TTITLE6=Blue and sentimental
TTITLE7=My Melancholy Baby
TTITLE8=Stardust
TTITLE9=Wrap your troubles in dreams
TTITLE10=September song
TTITLE11=Lover Man
TTITLE12=Walking around
TTITLE13=Deep Purple
TTITLE14=I surrender, Dear
TTITLE15=Yesterdays
TTITLE16=These Foolish things
TTITLE17=Stormy Weather
TTITLE18=I got Rhythm
TTITLE19=Laura
EXTD=
EXTT0=
EXTT1=
EXTT2=
EXTT3=
EXTT4=
EXTT5=
EXTT6=
EXTT7=
EXTT8=
EXTT9=
EXTT10=
EXTT11=
EXTT12=
EXTT13=
EXTT14=
EXTT15=
EXTT16=
EXTT17=
EXTT18=
EXTT19=
PLAYORDER=
